<svg width="15" height="12" viewBox="0 0 15 12" fill="none" xmlns="http://www.w3.org/2000/svg">
<path fill-rule="evenodd" clip-rule="evenodd" d="M14.1667 1.94945C13.6761 2.16722 13.1489 2.31389 12.5956 2.38C13.1606 2.04167 13.5944 1.50556 13.7983 0.866668C13.27 1.18 12.6844 1.40778 12.0611 1.53056C11.5628 0.99889 10.8511 0.666668 10.0644 0.666668C8.29834 0.666668 7.00056 2.31445 7.39945 4.025C5.12667 3.91111 3.11111 2.82222 1.76167 1.16722C1.045 2.39667 1.39 4.005 2.60778 4.81945C2.16 4.805 1.73778 4.68222 1.36945 4.47722C1.33945 5.74445 2.24778 6.93 3.56334 7.19389C3.17834 7.29834 2.75667 7.32278 2.32778 7.24056C2.67556 8.32722 3.68556 9.11778 4.88334 9.14C3.73334 10.0417 2.28445 10.4444 0.833336 10.2733C2.04389 11.0494 3.48222 11.5022 5.02667 11.5022C10.1056 11.5022 12.975 7.21278 12.8017 3.36556C13.3361 2.97945 13.8 2.49778 14.1667 1.94945Z" fill="#6B7280"/>
</svg>